<svg width="18" height="19" viewBox="0 0 18 19" fill="none" xmlns="http://www.w3.org/2000/svg">
<g clip-path="url(#clip0)">
<path d="M3.98255 11.4712L3.35704 13.8064L1.0708 13.8547C0.38755 12.5875 0 11.1375 0 9.59674C0 8.1068 0.36235 6.70176 1.00464 5.4646H1.00513L3.04052 5.83776L3.93215 7.86094C3.74553 8.40499 3.64382 8.98902 3.64382 9.59674C3.64389 10.2563 3.76336 10.8882 3.98255 11.4712Z" fill="#FBBB00"/>
<path d="M17.8131 7.91809C17.9163 8.46162 17.9701 9.02293 17.9701 9.59661C17.9701 10.2399 17.9025 10.8674 17.7737 11.4726C17.3363 13.5323 16.1934 15.3307 14.6101 16.6035L14.6097 16.603L12.046 16.4722L11.6831 14.2071C12.7337 13.591 13.5547 12.6268 13.9872 11.4726H9.18262V7.91809H14.0573H17.8131Z" fill="#518EF8"/>
<path d="M14.6091 16.6031L14.6096 16.6036C13.0698 17.8413 11.1138 18.5818 8.98455 18.5818C5.56283 18.5818 2.58791 16.6693 1.07031 13.8548L3.98206 11.4713C4.74084 13.4964 6.69435 14.938 8.98455 14.938C9.96894 14.938 10.8912 14.6718 11.6825 14.2073L14.6091 16.6031Z" fill="#28B446"/>
<path d="M14.7204 2.68022L11.8096 5.06322C10.9906 4.55128 10.0225 4.25555 8.98528 4.25555C6.64324 4.25555 4.6532 5.76325 3.93243 7.86094L1.00537 5.4646H1.00488C2.50026 2.58149 5.51271 0.611694 8.98528 0.611694C11.1654 0.611694 13.1643 1.38827 14.7204 2.68022Z" fill="#F14336"/>
</g>
<defs>
<clipPath id="clip0">
<rect width="17.9701" height="17.9701" fill="white" transform="translate(0 0.611816)"/>
</clipPath>
</defs>
</svg>
